<svg width="129" height="73" viewBox="0 0 129 73" fill="none" xmlns="http://www.w3.org/2000/svg">
<path d="M1.02554 12V0.200543H5.68079C6.5719 0.200543 7.33241 0.359943 7.96233 0.678744C8.59609 0.993703 9.07813 1.44118 9.40845 2.02116C9.74262 2.59731 9.9097 3.27524 9.9097 4.05496C9.9097 4.83851 9.7407 5.5126 9.40269 6.07723C9.06469 6.63801 8.57496 7.0682 7.93352 7.36779C7.29592 7.66739 6.52389 7.81718 5.61742 7.81718H2.50047V5.8122H5.21412C5.6904 5.8122 6.08602 5.7469 6.40097 5.61631C6.71593 5.48572 6.95023 5.28983 7.10387 5.02864C7.26135 4.76746 7.34009 4.44289 7.34009 4.05496C7.34009 3.66318 7.26135 3.33285 7.10387 3.06399C6.95023 2.79512 6.71401 2.59155 6.39521 2.45327C6.08025 2.31116 5.68271 2.2401 5.20259 2.2401H3.52025V12H1.02554ZM7.39771 6.63033L10.3303 12H7.57631L4.70711 6.63033H7.39771ZM11.6727 12V0.200543H16.328C17.2229 0.200543 17.9853 0.371466 18.6153 0.713313C19.2452 1.05132 19.7253 1.52184 20.0556 2.12487C20.3898 2.72406 20.5569 3.41543 20.5569 4.19899C20.5569 4.98255 20.3879 5.67392 20.0499 6.27312C19.7119 6.87231 19.2221 7.33898 18.5807 7.67315C17.9431 8.00731 17.1711 8.17439 16.2646 8.17439H13.2974V6.17517H15.8613C16.3414 6.17517 16.737 6.09259 17.0481 5.92743C17.3631 5.75843 17.5974 5.52605 17.751 5.23029C17.9085 4.9307 17.9873 4.58693 17.9873 4.19899C17.9873 3.80721 17.9085 3.46537 17.751 3.17345C17.5974 2.8777 17.3631 2.64916 17.0481 2.48784C16.7332 2.32268 16.3337 2.2401 15.8498 2.2401H14.1674V12H11.6727ZM0.334164 20.2005H3.12847L5.81907 25.2821H5.9343L8.6249 20.2005H11.4192L7.11539 27.8287V32H4.63797V27.8287L0.334164 20.2005ZM22.9119 26.1003C22.9119 27.387 22.668 28.4817 22.1802 29.3843C21.6962 30.2869 21.0355 30.9764 20.1982 31.4527C19.3647 31.9251 18.4275 32.1613 17.3866 32.1613C16.338 32.1613 15.397 31.9232 14.5635 31.4469C13.73 30.9706 13.0713 30.2812 12.5873 29.3785C12.1034 28.4759 11.8614 27.3832 11.8614 26.1003C11.8614 24.8135 12.1034 23.7189 12.5873 22.8162C13.0713 21.9136 13.73 21.2261 14.5635 20.7536C15.397 20.2774 16.338 20.0392 17.3866 20.0392C18.4275 20.0392 19.3647 20.2774 20.1982 20.7536C21.0355 21.2261 21.6962 21.9136 22.1802 22.8162C22.668 23.7189 22.9119 24.8135 22.9119 26.1003ZM20.3826 26.1003C20.3826 25.2668 20.2578 24.5639 20.0081 23.9916C19.7623 23.4193 19.4147 22.9852 18.9653 22.6895C18.5159 22.3937 17.9897 22.2459 17.3866 22.2459C16.7836 22.2459 16.2574 22.3937 15.808 22.6895C15.3586 22.9852 15.0091 23.4193 14.7594 23.9916C14.5136 24.5639 14.3907 25.2668 14.3907 26.1003C14.3907 26.9338 14.5136 27.6367 14.7594 28.209C15.0091 28.7813 15.3586 29.2153 15.808 29.5111C16.2574 29.8068 16.7836 29.9547 17.3866 29.9547C17.9897 29.9547 18.5159 29.8068 18.9653 29.5111C19.4147 29.2153 19.7623 28.7813 20.0081 28.209C20.2578 27.6367 20.3826 26.9338 20.3826 26.1003ZM32.0481 20.2005H34.5428V27.8633C34.5428 28.7237 34.3373 29.4765 33.9263 30.1218C33.5192 30.767 32.9488 31.2702 32.2152 31.6313C31.4815 31.9885 30.6269 32.1671 29.6513 32.1671C28.6719 32.1671 27.8153 31.9885 27.0817 31.6313C26.3481 31.2702 25.7777 30.767 25.3706 30.1218C24.9634 29.4765 24.7598 28.7237 24.7598 27.8633V20.2005H27.2546V27.6501C27.2546 28.0995 27.3525 28.499 27.5484 28.8485C27.7481 29.198 28.0285 29.4726 28.3896 29.6724C28.7506 29.8721 29.1712 29.972 29.6513 29.972C30.1353 29.972 30.5559 29.8721 30.9131 29.6724C31.2741 29.4726 31.5526 29.198 31.7485 28.8485C31.9482 28.499 32.0481 28.0995 32.0481 27.6501V20.2005ZM46.4647 20.2005V32H44.3099L39.1764 24.5735H39.09V32H36.5953V20.2005H38.7847L43.8778 27.6213H43.9815V20.2005H46.4647ZM56.3499 24.0146C56.2692 23.7342 56.1559 23.4865 56.01 23.2714C55.864 23.0525 55.6854 22.8681 55.4742 22.7183C55.2667 22.5647 55.0286 22.4475 54.7597 22.3668C54.4947 22.2862 54.2009 22.2459 53.8782 22.2459C53.2752 22.2459 52.7451 22.3957 52.2881 22.6953C51.8348 22.9948 51.4815 23.4308 51.228 24.0031C50.9745 24.5716 50.8477 25.2668 50.8477 26.0887C50.8477 26.9107 50.9725 27.6098 51.2222 28.1859C51.4719 28.7621 51.8252 29.2019 52.2823 29.5053C52.7394 29.8049 53.279 29.9547 53.9013 29.9547C54.4659 29.9547 54.9479 29.8548 55.3474 29.6551C55.7507 29.4515 56.058 29.1654 56.2692 28.7966C56.4843 28.4279 56.5919 27.9919 56.5919 27.4888L57.0989 27.5637H54.0568V25.6854H58.9944V27.1719C58.9944 28.209 58.7755 29.1001 58.3376 29.8452C57.8997 30.5865 57.2967 31.1588 56.5285 31.5621C55.7603 31.9616 54.8807 32.1613 53.8898 32.1613C52.7836 32.1613 51.8118 31.9174 50.9745 31.4296C50.1371 30.938 49.4842 30.2408 49.0156 29.3382C48.5508 28.4317 48.3184 27.3563 48.3184 26.1118C48.3184 25.1554 48.4567 24.3027 48.7333 23.5537C49.0136 22.8009 49.4054 22.1633 49.9086 21.6409C50.4118 21.1185 50.9975 20.721 51.6658 20.4483C52.3342 20.1756 53.0582 20.0392 53.8379 20.0392C54.5062 20.0392 55.1285 20.1372 55.7046 20.3331C56.2808 20.5251 56.7916 20.7978 57.2372 21.1512C57.6866 21.5046 58.0534 21.9251 58.3376 22.4129C58.6218 22.8969 58.8043 23.4308 58.8849 24.0146H56.3499ZM11.4365 44.3315H8.91297C8.86688 44.005 8.77277 43.715 8.63066 43.4615C8.48854 43.2042 8.3061 42.9852 8.08332 42.8047C7.86054 42.6242 7.6032 42.4859 7.31128 42.3899C7.02321 42.2939 6.71017 42.2459 6.37217 42.2459C5.76145 42.2459 5.22948 42.3976 4.77625 42.701C4.32301 43.0006 3.97156 43.4385 3.7219 44.0146C3.47224 44.5869 3.3474 45.2821 3.3474 46.1003C3.3474 46.9414 3.47224 47.6482 3.7219 48.2205C3.9754 48.7928 4.32877 49.2249 4.78201 49.5168C5.23524 49.8087 5.75953 49.9547 6.35488 49.9547C6.68905 49.9547 6.99825 49.9105 7.28248 49.8222C7.57055 49.7338 7.82597 49.6052 8.04875 49.4362C8.27153 49.2633 8.45589 49.054 8.60185 48.8082C8.75165 48.5623 8.85535 48.2819 8.91297 47.967L11.4365 47.9785C11.3712 48.5201 11.2079 49.0425 10.9468 49.5456C10.6894 50.0449 10.3418 50.4924 9.90394 50.888C9.46991 51.2798 8.95138 51.5909 8.34835 51.8214C7.74915 52.048 7.07122 52.1613 6.31455 52.1613C5.26213 52.1613 4.32109 51.9232 3.49144 51.4469C2.66563 50.9706 2.01267 50.2812 1.53255 49.3785C1.05627 48.4759 0.818126 47.3832 0.818126 46.1003C0.818126 44.8135 1.06011 43.7189 1.54407 42.8162C2.02803 41.9136 2.68484 41.2261 3.51449 40.7536C4.34414 40.2774 5.27749 40.0392 6.31455 40.0392C6.99825 40.0392 7.63201 40.1352 8.21583 40.3273C8.8035 40.5193 9.32395 40.7997 9.77719 41.1685C10.2304 41.5334 10.5992 41.9808 10.8834 42.5109C11.1715 43.0409 11.3558 43.6478 11.4365 44.3315ZM13.2254 52V40.2005H17.8807C18.7718 40.2005 19.5323 40.3599 20.1622 40.6787C20.796 40.9937 21.278 41.4412 21.6083 42.0212C21.9425 42.5973 22.1096 43.2752 22.1096 44.055C22.1096 44.8385 21.9406 45.5126 21.6026 46.0772C21.2646 46.638 20.7748 47.0682 20.1334 47.3678C19.4958 47.6674 18.7238 47.8172 17.8173 47.8172H14.7003V45.8122H17.414C17.8903 45.8122 18.2859 45.7469 18.6009 45.6163C18.9158 45.4857 19.1501 45.2898 19.3037 45.0286C19.4612 44.7675 19.54 44.4429 19.54 44.055C19.54 43.6632 19.4612 43.3329 19.3037 43.064C19.1501 42.7951 18.9139 42.5915 18.5951 42.4533C18.2801 42.3112 17.8826 42.2401 17.4025 42.2401H15.7201V52H13.2254ZM19.5976 46.6303L22.5302 52H19.7762L16.907 46.6303H19.5976ZM23.8726 52V40.2005H31.8234V42.2574H26.3673V45.069H31.4143V47.1258H26.3673V49.9432H31.8464V52H23.8726ZM35.8406 52H33.1672L37.2406 40.2005H40.4555L44.5231 52H41.8498L38.8941 42.8969H38.8019L35.8406 52ZM35.6735 47.362H41.988V49.3094H35.6735V47.362ZM44.0521 42.2574V40.2005H53.7428V42.2574H50.1304V52H47.6645V42.2574H44.0521ZM57.8335 40.2005V52H55.3388V40.2005H57.8335ZM62.0177 40.2005L64.8696 49.1654H64.9791L67.8368 40.2005H70.6023L66.5347 52H63.3198L59.2465 40.2005H62.0177ZM72.0225 52V40.2005H79.9733V42.2574H74.5172V45.069H79.5642V47.1258H74.5172V49.9432H79.9963V52H72.0225ZM1.02554 72V60.2005H8.97634V62.2574H3.52025V65.069H8.56728V67.1258H3.52025V69.9432H8.99939V72H1.02554ZM20.8291 60.2005V72H18.6743L13.5409 64.5735H13.4544V72H10.9597V60.2005H13.1491L18.2422 67.6213H18.3459V60.2005H20.8291ZM22.4409 62.2574V60.2005H32.1316V62.2574H28.5192V72H26.0533V62.2574H22.4409ZM33.7275 72V60.2005H38.3828C39.2739 60.2005 40.0344 60.3599 40.6643 60.6787C41.2981 60.9937 41.7801 61.4412 42.1105 62.0212C42.4446 62.5973 42.6117 63.2752 42.6117 64.055C42.6117 64.8385 42.4427 65.5126 42.1047 66.0772C41.7667 66.638 41.277 67.0682 40.6355 67.3678C39.9979 67.6674 39.2259 67.8172 38.3194 67.8172H35.2025V65.8122H37.9161C38.3924 65.8122 38.788 65.7469 39.103 65.6163C39.4179 65.4857 39.6522 65.2898 39.8059 65.0286C39.9634 64.7675 40.0421 64.4429 40.0421 64.055C40.0421 63.6632 39.9634 63.3329 39.8059 63.064C39.6522 62.7951 39.416 62.5915 39.0972 62.4533C38.7823 62.3112 38.3847 62.2401 37.9046 62.2401H36.2223V72H33.7275ZM40.0997 66.6303L43.0323 72H40.2783L37.4091 66.6303H40.0997ZM44.3747 72V60.2005H52.3255V62.2574H46.8694V65.069H51.9165V67.1258H46.8694V69.9432H52.3486V72H44.3747ZM54.3089 72V60.2005H58.9642C59.8591 60.2005 60.6215 60.3715 61.2515 60.7133C61.8814 61.0513 62.3615 61.5218 62.6918 62.1249C63.026 62.7241 63.1931 63.4154 63.1931 64.199C63.1931 64.9825 63.0241 65.6739 62.6861 66.2731C62.3481 66.8723 61.8583 67.339 61.2169 67.6731C60.5793 68.0073 59.8072 68.1744 58.9008 68.1744H55.9336V66.1752H58.4975C58.9776 66.1752 59.3732 66.0926 59.6843 65.9274C59.9993 65.7584 60.2336 65.526 60.3872 65.2303C60.5447 64.9307 60.6235 64.5869 60.6235 64.199C60.6235 63.8072 60.5447 63.4654 60.3872 63.1735C60.2336 62.8777 59.9993 62.6492 59.6843 62.4878C59.3694 62.3227 58.9699 62.2401 58.486 62.2401H56.8036V72H54.3089ZM64.8135 72V60.2005H69.4687C70.3598 60.2005 71.1203 60.3599 71.7503 60.6787C72.384 60.9937 72.8661 61.4412 73.1964 62.0212C73.5306 62.5973 73.6976 63.2752 73.6976 64.055C73.6976 64.8385 73.5286 65.5126 73.1906 66.0772C72.8526 66.638 72.3629 67.0682 71.7215 67.3678C71.0839 67.6674 70.3118 67.8172 69.4054 67.8172H66.2884V65.8122H69.002C69.4783 65.8122 69.8739 65.7469 70.1889 65.6163C70.5039 65.4857 70.7382 65.2898 70.8918 65.0286C71.0493 64.7675 71.128 64.4429 71.128 64.055C71.128 63.6632 71.0493 63.3329 70.8918 63.064C70.7382 62.7951 70.5019 62.5915 70.1831 62.4533C69.8682 62.3112 69.4706 62.2401 68.9905 62.2401H67.3082V72H64.8135ZM71.1856 66.6303L74.1182 72H71.3642L68.495 66.6303H71.1856ZM75.4606 72V60.2005H83.4114V62.2574H77.9553V65.069H83.0024V67.1258H77.9553V69.9432H83.4345V72H75.4606ZM95.2642 60.2005V72H93.1094L87.976 64.5735H87.8895V72H85.3948V60.2005H87.5842L92.6773 67.6213H92.781V60.2005H95.2642ZM97.3254 72V60.2005H105.276V62.2574H99.8201V65.069H104.867V67.1258H99.8201V69.9432H105.299V72H97.3254ZM114.548 60.2005H117.042V67.8633C117.042 68.7237 116.837 69.4765 116.426 70.1218C116.019 70.767 115.448 71.2702 114.715 71.6313C113.981 71.9885 113.127 72.1671 112.151 72.1671C111.172 72.1671 110.315 71.9885 109.581 71.6313C108.848 71.2702 108.277 70.767 107.87 70.1218C107.463 69.4765 107.26 68.7237 107.26 67.8633V60.2005H109.754V67.6501C109.754 68.0995 109.852 68.499 110.048 68.8485C110.248 69.198 110.528 69.4726 110.889 69.6724C111.25 69.8721 111.671 69.972 112.151 69.972C112.635 69.972 113.056 69.8721 113.413 69.6724C113.774 69.4726 114.052 69.198 114.248 68.8485C114.448 68.499 114.548 68.0995 114.548 67.6501V60.2005ZM119.095 72V60.2005H123.75C124.641 60.2005 125.402 60.3599 126.032 60.6787C126.666 60.9937 127.148 61.4412 127.478 62.0212C127.812 62.5973 127.979 63.2752 127.979 64.055C127.979 64.8385 127.81 65.5126 127.472 66.0772C127.134 66.638 126.644 67.0682 126.003 67.3678C125.365 67.6674 124.593 67.8172 123.687 67.8172H120.57V65.8122H123.284C123.76 65.8122 124.155 65.7469 124.47 65.6163C124.785 65.4857 125.02 65.2898 125.173 65.0286C125.331 64.7675 125.41 64.4429 125.41 64.055C125.41 63.6632 125.331 63.3329 125.173 63.064C125.02 62.7951 124.783 62.5915 124.465 62.4533C124.15 62.3112 123.752 62.2401 123.272 62.2401H121.59V72H119.095ZM125.467 66.6303L128.4 72H125.646L122.777 66.6303H125.467Z" fill="#0000EE"/>
</svg>
