<svg height="512" width="512" xmlns="http://www.w3.org/2000/svg"><path d="M223 140v285c0 5.33-2.83 10.27-7.44 12.96l-96 56C109.64 499.74 97 492.62 97 481V140c0-8.28 6.72-15 15-15h96c8.28 0 15 6.72 15 15z" fill="#ff7038"/><path d="M223 140v285c0 5.33-2.83 10.27-7.44 12.96L160 470.37V125h48c8.28 0 15 6.72 15 15z" fill="#ff2929"/><path d="M271 497c0 8.313-6.743 15-15 15H64c-10.409 0-17.693-10.375-14.07-20.2l24-65c2.17-5.89 7.79-9.8 14.07-9.8h144c6.28 0 11.9 3.91 14.07 9.8C271.722 496.265 271 493.143 271 497z" fill="#0a789b"/><path d="M256 512h-96v-95h72c6.28 0 11.9 3.91 14.07 9.8 12.37 33.499 7.06 19.117 24 65 3.62 9.873-3.696 20.2-14.07 20.2z" fill="#08475e"/><path d="M223 197.89v34.73l-126 73.5v-34.74c78.355-45.695 46.714-27.24 126-73.49z" fill="#ffdd54"/><path d="M223 197.89v34.73l-63 36.75v-34.73z" fill="#ffb454"/><path d="M223 285.88v34.73l-126 73.5v-34.73z" fill="#ffdd54"/><path d="m160 322.63 63-36.75v34.73l-63 36.75z" fill="#ffb454"/><path d="m222.834 88.236-49-81A14.998 14.998 0 0 0 161 0H82c-8.284 0-15 6.716-15 15v81c0 8.284 6.716 15 15 15h128c11.654 0 18.881-12.769 12.834-22.764z" fill="#e0eaef"/><path d="M497 81H218.457L173.834 7.236A14.998 14.998 0 0 0 161 0H82c-8.284 0-15 6.716-15 15v66H15C6.72 81 0 87.72 0 96v64c0 8.28 6.72 15 15 15h482c8.28 0 15-6.72 15-15V96c0-8.28-6.72-15-15-15zM97 30h55.543l30.852 51H97z" fill="#0a789b"/><path d="M512 96v64c0 8.28-6.72 15-15 15H256V81h241c8.28 0 15 6.72 15 15z" fill="#08475e"/><path d="M448.6 341.29c-6.779 4.735-16.126 3.114-20.89-3.69L384 275.16l-43.71 62.44c-4.75 6.79-14.11 8.44-20.89 3.69-6.79-4.75-8.44-14.11-3.69-20.89L369 244.27V193c0-8.28 6.72-15 15-15s15 6.72 15 15v51.27l53.29 76.13c4.75 6.78 3.1 16.14-3.69 20.89z" fill="#e0eaef"/><path d="M448.6 341.29c-6.779 4.735-16.126 3.114-20.89-3.69L384 275.16V178c8.28 0 15 6.72 15 15v51.27l53.29 76.13c4.75 6.78 3.1 16.14-3.69 20.89z" fill="#cce0e5"/><path d="M479 329v80c0 8.28-6.72 15-15 15H304c-8.28 0-15-6.72-15-15v-80c0-8.28 6.72-15 15-15h160c8.28 0 15 6.72 15 15z" fill="#ffdd54"/><path d="M479 329v80c0 8.28-6.72 15-15 15h-80V314h80c8.28 0 15 6.72 15 15z" fill="#ffb454"/><path d="M431 64v129c0 8.28-6.72 15-15 15h-64c-8.28 0-15-6.72-15-15V64c0-8.28 6.72-15 15-15h64c8.28 0 15 6.72 15 15z" fill="#ff7038"/><path d="M431 64v129c0 8.28-6.72 15-15 15h-32V49h32c8.28 0 15 6.72 15 15z" fill="#ff2929"/></svg>